<?xml version="1.0" encoding="UTF-8"?>
<svg width="452.4" height="377.95" version="1.1" viewBox="0 0 452.4 377.95" xml:space="preserve" xmlns="http://www.w3.org/2000/svg"><defs><clipPath id="clipPath4442"><path d="M 0,595.276 H 841.89 V 0 H 0 Z"/></clipPath></defs><g transform="matrix(1.3333 0 0 -1.3333 -335.06 585.83)"><g clip-path="url(#clipPath4442)"><g transform="translate(420.94 415.79)"><path d="m0 0c-20.708 0-40.431-4.202-58.373-11.79h1e-3v-47.172c3.474 1.47 7.015 2.812 10.617 4.021v35.376c13.4 4.505 27.651 7.157 42.446 7.672v-127.2l-30.191 13.727c-7.642 3.565-12.255 11.141-12.255 18.999v16.054c-3.602-1.21-7.143-2.551-10.617-4.022v-12.477c0.258-11.732 7.022-22.877 18.383-28.173l39.989-18.312v-1e-3h1e-3v1e-3l39.988 18.312c11.361 5.296 18.125 16.441 18.383 28.173v12.477c-3.473 1.471-7.014 2.812-10.616 4.022v-16.054c0-7.858-4.613-15.434-12.255-18.999l-30.191-13.727v127.2c14.795-0.515 29.046-3.167 42.446-7.672v-35.376c3.602-1.209 7.143-2.551 10.616-4.021v47.172h1e-3c-17.942 7.588-37.665 11.79-58.373 11.79" fill="#003da5"/></g><g transform="translate(458.11 387.56)"><path d="m0 0c-3.532 0.903-7.114 1.681-10.741 2.325-6.719-13.507-10.501-28.738-10.501-44.85 0-16.565 3.994-32.195 11.071-45.982 0.116-0.224 0.233-0.445 0.349-0.665l3.715 1.672c2.205 1.036 3.886 2.737 4.917 4.751-5.716 11.452-9.061 24.288-9.409 37.874 11.071-1.982 21.719-5.173 31.806-9.44v11.79c-9.949 4.212-20.443 7.376-31.351 9.364 1.227 11.89 4.754 23.099 10.144 33.161" fill="#003da5"/></g><g transform="translate(384.97 304.81)"><path d="m0 0c1.032-2.013 2.712-3.715 4.917-4.751l3.715-1.672c0.117 0.22 0.233 0.441 0.35 0.665 7.076 13.787 11.07 29.417 11.07 45.982 0 16.112-3.782 31.343-10.5 44.85-3.628-0.644-7.21-1.422-10.742-2.325 5.39-10.062 8.917-21.271 10.144-33.161-10.907-1.988-21.401-5.151-31.35-9.364v-11.79c10.087 4.267 20.734 7.458 31.805 9.44-0.347-13.586-3.693-26.422-9.409-37.874" fill="#003da5"/></g><g transform="translate(394.41 437.03)"><path d="m0 0v-11.79c-11.082-1.98-21.744-5.179-31.84-9.452v11.794c10.096 4.273 20.758 7.468 31.84 9.448" fill="#008c45"/></g><g transform="translate(405.03 426.74)"><path d="m0 0v11.79c5.233 0.553 10.542 0.836 15.921 0.836s10.687-0.283 15.921-0.836v-11.79c-5.234 0.553-10.542 0.836-15.921 0.836s-10.688-0.283-15.921-0.836" fill="#f4f9ff"/></g><g transform="translate(447.48 437.03)"><path d="m0 0c11.083-1.98 21.741-5.175 31.837-9.448v-11.794c-10.096 4.273-20.754 7.472-31.837 9.452z" fill="#cd212a"/></g><path d="m474.7 238.88h-4.124v-20.621h4.124z" fill="#003da5"/><g transform="translate(289.13 226.51)"><path d="m0 0h14.435v4.124h-14.435v4.124h14.435v4.125h-18.559v-20.622h4.124z" fill="#003da5"/></g><g transform="translate(328.93 218.26)"><path d="m0 0v4.124h-14.435v4.125h14.435v4.124h-14.435v4.124h14.435v4.124h-18.559v-20.621z" fill="#003da5"/></g><g transform="translate(381.36 218.26)"><path d="m0 0v4.124h-14.435v4.125h14.435v4.124h-14.435v4.124h14.435v4.124h-18.559v-20.621z" fill="#003da5"/></g><g transform="translate(556.88 218.25)"><path d="m0 0v4.124h-14.435v4.124h14.435v4.125h-14.435v4.124h14.435v4.124h-18.559v-20.621z" fill="#003da5"/></g><g transform="translate(392.29 234.76)"><path d="m0 0 10.807 5e-3c1.518 0 2.749-1.231 2.749-2.749 0-1.519-1.231-2.75-2.749-2.75l-10.807-5e-3zm0-9.623 10.092 5e-3 3.205-6.874h4.551l-3.629 7.782c2.068 1.185 3.462 3.412 3.462 5.966 0 3.796-3.078 6.873-6.874 6.873l-14.931-7e-3v-20.621h4.124z" fill="#003da5"/></g><g transform="translate(347.28 234.76)"><path d="m0 0c3.417 0 6.186-2.77 6.186-6.186 0-3.417-2.769-6.187-6.186-6.187h-7.423v12.373zm0-16.497c5.694 0 10.311 4.616 10.311 10.311 0 5.694-4.617 10.31-10.311 10.31h-11.547v-20.621z" fill="#003da5"/></g><g transform="translate(425.97 234.77)"><path d="m0 0h1.811l3.666-8.197h-9.144zm-5.512-12.321h12.835l1.881-4.205h4.563l-9.279 20.622h-7.165l-9.279-20.622h4.563z" fill="#003da5"/></g><g transform="translate(463.77 222.39)"><path d="m0 0h-14.08l14.08 12.373v4.124h-20.026v-4.124h14.13l-14.13-12.373v-4.124h20.026z" fill="#003da5"/></g><g transform="translate(514.15 233.58)"><path d="m0 0 12.154-15.33h5.216v20.621h-4.125v-15.384l-12.154 15.384h-5.215v-20.621h4.124z" fill="#003da5"/></g><g transform="translate(498.43 223.54)"><path d="m0 0c-1.367-1.093-3.523-1.695-6.07-1.695-2.536 0-4.689 0.608-6.064 1.712-1.373 1.102-2.041 2.739-2.041 5.004 0 2.266 0.668 3.902 2.041 5.005 1.375 1.103 3.528 1.711 6.064 1.711 2.547 0 4.703-0.601 6.07-1.694 1.368-1.094 2.034-2.737 2.034-5.022s-0.666-3.927-2.034-5.021m6.144 5.021c0 7.517-5.469 10.827-12.214 10.827-6.746 0-12.215-3.37-12.215-10.827s5.469-10.826 12.215-10.826c6.745 0 12.214 3.309 12.214 10.826" fill="#003da5"/></g><path d="m337.02 207.95h-4.124v-20.621h4.124z" fill="#003da5"/><g transform="translate(342.14 207.95)"><path d="m0 0v-4.124h9.049v-16.497h4.124v16.497h9.048v4.124z" fill="#003da5"/></g><path d="m422.87 207.95h-4.124v-20.621h4.124z" fill="#003da5"/><g transform="translate(394.47 207.95)"><path d="m0 0v-20.621h18.559v4.124h-14.435v16.497z" fill="#003da5"/></g><g transform="translate(439.2 203.83)"><path d="m0 0h1.836l3.654-8.168h-9.144zm-5.499-12.292h12.834l1.881-4.205h4.564l-9.279 20.621h-7.166l-9.279-20.621h4.564z" fill="#003da5"/></g><g transform="translate(500.7 195.66)"><path d="m0 0h-9.144l3.654 8.168h1.836zm-8.155 12.292-9.279-20.621h4.563l1.882 4.205h12.834l1.881-4.205h4.563l-9.278 20.621z" fill="#003da5"/></g><g transform="translate(381.79 195.66)"><path d="m0 0h-9.144l3.654 8.168h1.836zm-8.155 12.292-9.279-20.621h4.563l1.882 4.205h12.834l1.881-4.205h4.563l-9.278 20.621z" fill="#003da5"/></g><g transform="translate(461.5 202.66)"><path d="m0 0 12.154-15.331h5.216v20.622h-4.125v-15.384l-12.154 15.384h-5.215v-20.622h4.124z" fill="#003da5"/></g><g transform="translate(462.99 176.97)"><path d="m0 0v-20.621h18.559v4.124h-14.435v4.124h14.435v4.124h-14.435v4.125h14.435v4.124z" fill="#003da5"/></g><g transform="translate(266.34 167.35)"><path d="m0 0h-10.86l-0.064 5.499h10.86c1.518 0 2.749-1.231 2.749-2.75 0-1.518-1.231-2.749-2.685-2.749m-0.064 9.623h-14.984v-20.621h4.124v6.874h10.86c3.796 0 6.874 3.077 6.874 6.873 0 3.797-3.078 6.874-6.874 6.874" fill="#003da5"/></g><g transform="translate(383.92 171.58)"><path d="m0 0c1.355 1.088 3.479 1.687 5.982 1.687 2.514 0 4.641-0.593 5.988-1.67 0.76-0.608 1.292-1.395 1.617-2.365h4.25c-1.12 5.629-6.002 8.145-11.855 8.145-6.682 0-12.099-3.337-12.099-10.723s5.417-10.723 12.099-10.723c5.853 0 10.735 2.516 11.855 8.145h-4.25c-0.325-0.97-0.857-1.757-1.617-2.365-1.347-1.077-3.474-1.67-5.988-1.67-2.503 0-4.627 0.599-5.982 1.687-1.35 1.084-2.006 2.695-2.006 4.926s0.656 3.842 2.006 4.926" fill="#003da5"/></g><g transform="translate(307.39 176.97)"><path d="m0 0h-4.124v-20.621h18.559v4.124h-14.435z" fill="#003da5"/></g><g transform="translate(331.2 176.97)"><path d="m0 0h-4.124v-20.621h18.559v4.124h-14.435z" fill="#003da5"/></g><g transform="translate(512.98 172.85)"><path d="m0 0h9.049v-16.534h4.124v16.534h9.048v4.124h-22.221z" fill="#003da5"/></g><g transform="translate(498.26 168.79)"><path d="m0 0c-2.058 0.076-4.186 0.155-5.597 0.575-1.297 0.385-1.297 0.797-1.297 1.161 0 1.376 2.324 2.768 6.765 2.768 5.174 0 6.022-1.701 6.341-2.341 0 0 0.08-0.166 0.117-0.262h4.226c-0.147 0.835-0.348 1.498-0.677 2.121-1.554 3.091-4.828 4.593-10.007 4.593-8.027 0-10.875-3.706-10.875-6.879 0-5.442 6.272-5.674 10.852-5.843 2.104-0.078 4.279-0.158 5.734-0.6 1.396-0.424 1.396-0.906 1.396-1.332 0-0.554-0.376-1.062-1.12-1.509-1.184-0.712-3.112-1.105-5.429-1.105h-5e-3c-3.806 1e-3 -6.15 0.606-7.143 1.821-0.201 0.255-0.371 0.544-0.502 0.841h-4.277c0.224-1.189 0.771-2.395 1.573-3.413 1.871-2.291 5.159-3.358 10.348-3.359h6e-3c3.141 0 5.68 0.57 7.548 1.693 2.006 1.207 3.112 2.994 3.112 5.031 0 5.629-6.409 5.866-11.089 6.039" fill="#003da5"/></g><g transform="translate(452.05 161.59)"><path d="m0 0-12.154 15.384h-5.216v-20.621h4.125v15.33l12.154-15.33h5.215v20.621h-4.124z" fill="#003da5"/></g><g transform="translate(412.86 164.68)"><path d="m0 0 3.654 8.168h1.836l3.654-8.168zm0.989 12.292-9.278-20.621h4.563l1.881 4.205h12.835l1.881-4.205h4.563l-9.279 20.621z" fill="#003da5"/></g><g transform="translate(357.57 164.68)"><path d="m0 0 3.654 8.168h1.836l3.654-8.168zm0.989 12.292-9.278-20.621h4.563l1.881 4.205h12.834l1.882-4.205h4.563l-9.279 20.621z" fill="#003da5"/></g><g transform="translate(281.44 164.68)"><path d="m0 0 3.654 8.168h1.836l3.654-8.168zm0.989 12.292-9.278-20.621h4.563l1.881 4.205h12.834l1.882-4.205h4.563l-9.279 20.621z" fill="#003da5"/></g><g transform="translate(544.24 172.81)"><path d="m0 0 10.807 5e-3c1.518 0 2.749-1.231 2.749-2.749 0-1.519-1.231-2.75-2.749-2.75l-10.807-5e-3zm17.681-2.744c0 3.796-3.078 6.873-6.874 6.873l-14.931-7e-3v-20.621h4.124v6.876l10.092 5e-3 3.205-6.874h4.551l-3.629 7.782c2.068 1.185 3.462 3.412 3.462 5.966" fill="#003da5"/></g><g transform="translate(584.49 161.69)"><path d="m0 0c-1.347-1.077-3.474-1.67-5.988-1.67-2.502 0-4.627 0.599-5.982 1.687-1.35 1.084-2.006 2.695-2.006 4.926s0.656 3.842 2.006 4.926c1.355 1.088 3.48 1.687 5.982 1.687 2.514 0 4.641-0.593 5.988-1.67 1.346-1.076 2-2.692 2-4.943s-0.654-3.867-2-4.943m-5.988 15.666c-6.682 0-12.098-3.337-12.098-10.723s5.416-10.723 12.098-10.723c6.681 0 12.098 3.278 12.098 10.723s-5.417 10.723-12.098 10.723" fill="#003da5"/></g></g></g></svg>
